<svg id="facebook_2_" data-name="facebook (2)" xmlns="http://www.w3.org/2000/svg" width="16.909" height="16.909" viewBox="0 0 16.909 16.909">
  <path id="Path_7" data-name="Path 7" d="M291.068,508.668l-.212.032Zm0,0" transform="translate(-281.25 -491.869)" fill="#f8f8f8"/>
  <path id="Path_8" data-name="Path 8" d="M299.441,507.793l-.1.018Zm0,0" transform="translate(-289.454 -491.023)" fill="#f8f8f8"/>
  <path id="Path_9" data-name="Path 9" d="M277.858,510.34q-.124.014-.249.025Q277.734,510.354,277.858,510.34Zm0,0" transform="translate(-268.441 -493.486)" fill="#f8f8f8"/>
  <path id="Path_10" data-name="Path 10" d="M286.565,509.738l-.119.015Zm0,0" transform="translate(-276.985 -492.904)" fill="#f8f8f8"/>
  <path id="Path_11" data-name="Path 11" d="M306.753,506.41l-.089.019Zm0,0" transform="translate(-296.536 -489.686)" fill="#f8f8f8"/>
  <path id="Path_12" data-name="Path 12" d="M324.556,502.113l-.072.02Zm0,0" transform="translate(-313.768 -485.531)" fill="#f8f8f8"/>
  <path id="Path_13" data-name="Path 13" d="M319.137,503.543l-.078.02Zm0,0" transform="translate(-308.521 -486.913)" fill="#f8f8f8"/>
  <path id="Path_14" data-name="Path 14" d="M312.15,505.254l-.083.019Zm0,0" transform="translate(-301.76 -488.568)" fill="#f8f8f8"/>
  <path id="Path_15" data-name="Path 15" d="M273.614,511.09l-.134.01Zm0,0" transform="translate(-264.449 -494.211)" fill="#f8f8f8"/>
  <path id="Path_16" data-name="Path 16" d="M16.909,8.455a8.455,8.455,0,1,0-8.455,8.455l.149,0V10.326H6.787V8.209H8.6V6.651a2.543,2.543,0,0,1,2.714-2.79,14.952,14.952,0,0,1,1.628.083V5.833H11.835c-.877,0-1.047.417-1.047,1.028V8.209h2.1l-.273,2.117H10.788v6.257A8.459,8.459,0,0,0,16.909,8.455Zm0,0" fill="#f8f8f8"/>
  <path id="Path_17" data-name="Path 17" d="M265.156,511.43q-.132.009-.265.013Q265.024,511.438,265.156,511.43Zm0,0" transform="translate(-256.142 -494.539)" fill="#f8f8f8"/>
  <path id="Path_18" data-name="Path 18" d="M260.644,511.836l-.14,0Zm0,0" transform="translate(-251.901 -494.932)" fill="#f8f8f8"/>
</svg>
