<svg id="instagram_1_" data-name="instagram (1)" xmlns="http://www.w3.org/2000/svg" width="16.909" height="16.909" viewBox="0 0 16.909 16.909">
  <path id="Path_19" data-name="Path 19" d="M210.237,208.618A1.618,1.618,0,1,1,208.618,207,1.618,1.618,0,0,1,210.237,208.618Zm0,0" transform="translate(-200.164 -200.164)" fill="#f8f8f8"/>
  <path id="Path_20" data-name="Path 20" d="M143.249,136.605a1.608,1.608,0,0,0-.921-.921,2.686,2.686,0,0,0-.9-.167c-.512-.023-.666-.028-1.962-.028s-1.45,0-1.962.028a2.687,2.687,0,0,0-.9.167,1.608,1.608,0,0,0-.921.921,2.687,2.687,0,0,0-.167.9c-.023.512-.028.665-.028,1.962s.005,1.45.028,1.962a2.686,2.686,0,0,0,.167.9,1.608,1.608,0,0,0,.921.921,2.683,2.683,0,0,0,.9.167c.512.023.665.028,1.962.028s1.45,0,1.962-.028a2.683,2.683,0,0,0,.9-.167,1.608,1.608,0,0,0,.921-.921,2.688,2.688,0,0,0,.167-.9c.023-.512.028-.666.028-1.962s0-1.45-.028-1.962A2.683,2.683,0,0,0,143.249,136.605Zm-3.785,5.356a2.493,2.493,0,1,1,2.493-2.493A2.493,2.493,0,0,1,139.464,141.961Zm2.591-4.5a.583.583,0,1,1,.583-.583A.583.583,0,0,1,142.056,137.459Zm0,0" transform="translate(-131.01 -131.014)" fill="#f8f8f8"/>
  <path id="Path_21" data-name="Path 21" d="M8.455,0a8.455,8.455,0,1,0,8.455,8.455A8.455,8.455,0,0,0,8.455,0ZM13.28,10.456a3.562,3.562,0,0,1-.226,1.178,2.482,2.482,0,0,1-1.42,1.42,3.564,3.564,0,0,1-1.178.226c-.518.024-.683.029-2,.029s-1.484-.006-2-.029a3.564,3.564,0,0,1-1.178-.226,2.482,2.482,0,0,1-1.42-1.42,3.561,3.561,0,0,1-.226-1.178c-.024-.518-.029-.683-.029-2s.006-1.484.029-2a3.562,3.562,0,0,1,.226-1.178,2.484,2.484,0,0,1,1.42-1.42,3.565,3.565,0,0,1,1.178-.226c.518-.024.683-.029,2-.029s1.484.006,2,.029a3.566,3.566,0,0,1,1.178.225,2.483,2.483,0,0,1,1.42,1.42,3.562,3.562,0,0,1,.226,1.178c.024.518.029.683.029,2S13.3,9.938,13.28,10.456Zm0,0" fill="#f8f8f8"/>
</svg>
